<svg xmlns="http://www.w3.org/2000/svg" viewBox="0 0 406.809 88.851">
  <defs>
    <style>
      .a {
        fill: #fff;
      }
    </style>
  </defs>
  <g>
    <path class="a" d="M90.249,66.252l5.1-29.156a2.813,2.813,0,0,1,2.922-2.447h2.039c1.564,0,2.379.883,2.039,2.447l-.679,4.213A13.012,13.012,0,0,1,113.7,33.9c3.33,0,7.951,1.088,9.515,7,3.805-5.844,8.63-7,12.709-7,8.155,0,12.233,4.894,10.33,15.564l-2.922,16.787a2.77,2.77,0,0,1-2.923,2.446h-2.039a1.854,1.854,0,0,1-2.038-2.446l2.922-16.787c1.291-6.932-1.5-9.447-5.03-9.447-3.194,0-9.379,1.971-11.417,11.961l-2.514,14.273a2.77,2.77,0,0,1-2.923,2.446h-2.039a1.855,1.855,0,0,1-2.039-2.446l2.923-16.787c1.291-6.932-1.5-9.447-5.03-9.447-3.466,0-9.718,2.378-11.553,12.709L97.249,66.252A2.727,2.727,0,0,1,94.327,68.7H92.288C90.724,68.7,90.045,67.814,90.249,66.252Z"/>
    <path class="a" d="M154.814,53.883,157.736,37.1a2.7,2.7,0,0,1,2.854-2.447h2.04a1.894,1.894,0,0,1,2.107,2.447l-2.923,16.718c-1.291,6.933,1.5,9.515,5.1,9.515,3.534,0,11.01-2.446,12.844-12.709L182.067,37.1a2.768,2.768,0,0,1,2.923-2.447h2.038a1.855,1.855,0,0,1,2.039,2.447L183.9,66.252A2.726,2.726,0,0,1,180.98,68.7h-2.039c-1.563,0-2.243-.884-2.039-2.446l.815-4.214c-2.378,4.757-7.2,7.408-12.709,7.408C157.464,69.446,152.843,64.553,154.814,53.883Z"/>
    <path class="a" d="M193.214,59.8c-.476-1.5.543-2.65,2.174-3.059l2.039-.475c1.5-.34,2.243.2,2.718,1.632,1.155,2.921,4.418,5.232,9.175,5.232,6.117,0,10.331-2.99,11.078-7.067.611-3.6-1.971-5.845-5.573-7.273l-6.592-2.379c-8.5-2.99-9.719-8.359-8.9-12.777,1.426-8.223,9.514-13.252,17.738-13.252,7.476,0,12.1,3.6,13.32,8.971a2.511,2.511,0,0,1-2.106,3.058l-1.9.544a2.077,2.077,0,0,1-2.855-1.563c-.883-3.127-3.6-4.622-7.544-4.622-4.417,0-8.7,2.447-9.378,6.661-.34,1.97-.2,4.553,4.825,6.592l6.661,2.65c7.543,2.515,10.33,7.816,9.446,12.913-1.563,8.564-9.311,13.865-19.234,13.865C199.874,69.446,194.64,65.368,193.214,59.8Z"/>
    <path class="a" d="M273.137,23.571l-.271,1.019a2.663,2.663,0,0,1-2.855,2.447h-20.8L246.5,42.465H264.3c1.564,0,2.379.883,2.039,2.446l-.135.884a2.807,2.807,0,0,1-2.855,2.515H245.477l-2.514,14.475h20.728a1.915,1.915,0,0,1,2.106,2.447l-.271,1.02a2.7,2.7,0,0,1-2.854,2.446H237.118c-1.564,0-2.243-.884-2.039-2.446l7.611-42.681a2.663,2.663,0,0,1,2.855-2.446H271.1C272.594,21.125,273.341,22.008,273.137,23.571Z"/>
    <path class="a" d="M270.9,65.844,294.885,23.1a3.5,3.5,0,0,1,3.195-1.97h3.942a2.29,2.29,0,0,1,2.514,1.97l8.9,42.749A2.185,2.185,0,0,1,311.06,68.7h-2.175a2.241,2.241,0,0,1-2.513-1.97l-1.564-7.749H282.041l-4.282,7.749a3.384,3.384,0,0,1-3.194,1.97h-2.243C270.487,68.7,269.943,67.543,270.9,65.844Zm32.894-12.709-4.961-25.01L285.1,53.135Z"/>
    <path class="a" d="M339.063,60.271l-6.8-12.777-3.33,18.758a2.663,2.663,0,0,1-2.854,2.446h-2.311c-1.563,0-2.243-.884-2.039-2.446l7.612-42.681a2.662,2.662,0,0,1,2.855-2.446h2.31c1.563,0,2.243.883,2.039,2.446l-3.669,20.185L351.7,22.688a4.091,4.091,0,0,1,3.33-1.563h4.078c1.562,0,1.427,1.291.271,2.65L339.606,45.659l6.457,11.894c1.631,3.057,3.67,5.709,6.525,5.709a6.985,6.985,0,0,0,2.921-.544c1.632-.544,2.515-.34,3.059,1.019l.2.816c.476,1.291,0,2.65-1.7,3.4a16.158,16.158,0,0,1-6.457,1.5C343.684,69.446,340.694,63.873,339.063,60.271Z"/>
  </g>
  <path class="a" d="M348.52,86.231H91.792a1.578,1.578,0,0,1-1.578-1.578V82.261a1.577,1.577,0,0,1,1.578-1.578H348.52a29.369,29.369,0,0,0,27.167-16.745c1.974-4.9-1.241-23.788-15.683-15.3a1.587,1.587,0,0,1-2.126-2.255c7.688-11.017,21.845-6.838,23.339,8.83a.653.653,0,0,0,1.113.411c10.79-10.393,25.332-3.468,23.207,11.937a1.586,1.586,0,0,1-3.1.191c-5.893-20.723-20.283-5.055-22.386-.943C380.052,66.808,370.536,86.231,348.52,86.231Z"/>
  <path class="a" d="M44.121,8.619C10.308,5.877,2.086,31.377,2.086,31.377c9.531-6.593,9.074-3,19.061.653C34.855,36.6,35.638,13.622,35.638,13.622c15.34,29.766-8.617,29.425-16.515,27.285-7.114-2.872-27.251,16.1-12.078,29.9,6.728,6.116,37.286,7.591,49.083-4.2a.017.017,0,0,0,.006-.016c-2.714-17.376-23.413-10.993-26.1,5.5a0,0,0,0,1-.008,0c-5.072-39.451,35.24-17.868,35.253-17.862h0c7.017-11.26,4.243-19.778,4.243-19.778,4.286,0,6.44,10.661,6.462,10.77l0-.006C81.849,17.6,55.9,21.606,55.9,21.606,59.588-7.471,26.509,3.262,25.881,3.476H25.9C37.706,1.5,44.121,8.619,44.121,8.619Z"/>
</svg>
